<svg width="94" height="96" viewBox="0 0 94 96" fill="none" xmlns="http://www.w3.org/2000/svg">
<g opacity="0.7">
<path d="M47.0091 94.1877C54.3691 94.1877 60.3356 73.3269 60.3356 47.5938C60.3356 21.8608 54.3691 1 47.0091 1C39.6491 1 33.6826 21.8608 33.6826 47.5938C33.6826 73.3269 39.6491 94.1877 47.0091 94.1877Z" stroke="white" stroke-width="2" stroke-miterlimit="10"/>
<path d="M53.6784 59.1282C75.9478 46.2359 91.0115 30.6213 87.3241 24.252C83.6367 17.8826 62.5946 23.1705 40.3252 36.0627C18.0558 48.955 2.99213 64.5696 6.6795 70.939C10.3669 77.3083 31.409 72.0205 53.6784 59.1282Z" stroke="white" stroke-width="2" stroke-miterlimit="10"/>
<path d="M87.3212 70.9385C91.0085 64.5691 75.9448 48.9545 53.6754 36.0622C31.406 23.17 10.3639 17.8821 6.67657 24.2514C2.9892 30.6208 18.0529 46.2354 40.3223 59.1277C62.5917 72.02 83.6338 77.3078 87.3212 70.9385Z" stroke="white" stroke-width="2" stroke-miterlimit="10"/>
<circle cx="23.0378" cy="22.8862" r="4.60761" fill="white"/>
<circle cx="47.2272" cy="47.652" r="4.60761" fill="white"/>
</g>
</svg>
