<svg width="62" height="62" viewBox="0 0 62 62" fill="none" xmlns="http://www.w3.org/2000/svg">
<path fill-rule="evenodd" clip-rule="evenodd" d="M39.0316 25.0976C39.0316 25.8676 38.4067 26.4926 37.6367 26.4926C36.8667 26.4926 36.2418 25.8676 36.2418 25.0976C36.2418 24.3275 36.8667 23.7026 37.6367 23.7026C38.4067 23.7026 39.0316 24.3275 39.0316 25.0976V25.0976ZM31.4998 35.6878C29.1898 35.6878 27.3125 33.8095 27.3125 31.5002C27.3125 29.1918 29.1898 27.3135 31.4998 27.3135C33.808 27.3135 35.6862 29.1918 35.6862 31.5002C35.6862 33.8095 33.808 35.6878 31.4998 35.6878V35.6878ZM31.5009 25.4882C28.1849 25.4882 25.4878 28.1855 25.4878 31.5C25.4878 34.8154 28.1849 37.5127 31.5009 37.5127C34.8151 37.5127 37.5122 34.8154 37.5122 31.5C37.5122 28.1855 34.8151 25.4882 31.5009 25.4882V25.4882ZM41.1742 37.2217C41.1742 39.4013 39.4016 41.1758 37.2212 41.1758H25.7796C23.5993 41.1758 21.825 39.4013 21.825 37.2217V25.7792C21.825 23.5987 23.5993 21.8251 25.7796 21.8251H37.2212C39.4016 21.8251 41.1742 23.5987 41.1742 25.7792V37.2217ZM37.2212 20H25.7796C22.5932 20 20 22.5926 20 25.7792V37.2217C20 40.4074 22.5932 43 25.7796 43H37.2212C40.4076 43 43 40.4074 43 37.2217V25.7792C43 22.5926 40.4076 20 37.2212 20V20Z" fill="#CDCDCD"/>
</svg>
