<svg width="16" height="16" viewBox="0 0 16 16" fill="none" xmlns="http://www.w3.org/2000/svg">
<path fill-rule="evenodd" clip-rule="evenodd" d="M12.6877 0.5C13.4624 0.5 14.125 0.775074 14.6749 1.32512C15.2249 1.87516 15.5 2.53778 15.5 3.31248V12.6874C15.5 13.4621 15.2249 14.1246 14.6748 14.6748C14.1248 15.2249 13.4623 15.5 12.6876 15.5H3.31252C2.53784 15.5 1.87529 15.2249 1.32513 14.6748C0.775078 14.1246 0.5 13.4621 0.5 12.6874V3.31248C0.5 2.53778 0.775078 1.87527 1.32513 1.32512C1.87529 0.775074 2.53784 0.5 3.31252 0.5H12.6877ZM12.6192 8.88855C12.873 8.7778 13.0001 8.58584 13.0001 8.31241H13.0002V3.62497C13.0002 3.45569 12.9383 3.30916 12.8147 3.18554C12.6909 3.06179 12.5443 2.99988 12.3751 2.99988H7.6877C7.41426 2.99988 7.22209 3.12695 7.11147 3.38078C7.00086 3.64782 7.04638 3.87555 7.24826 4.06436L8.65454 5.47058L3.43955 10.6856C3.31583 10.8092 3.25395 10.9557 3.25395 11.1249C3.25395 11.294 3.31583 11.4408 3.43955 11.5643L4.43564 12.5605C4.55932 12.6841 4.70582 12.7461 4.87521 12.7461C5.04452 12.7461 5.19089 12.6841 5.31474 12.5605L10.5294 7.34561L11.9356 8.75184C12.0529 8.87542 12.1994 8.93736 12.375 8.93736C12.453 8.93736 12.5347 8.92108 12.6192 8.88855Z" fill="#CDCDCD"/>
</svg>
