<svg width="62" height="62" viewBox="0 0 62 62" fill="none" xmlns="http://www.w3.org/2000/svg">
<path fill-rule="evenodd" clip-rule="evenodd" d="M32.4712 39.9803C32.4712 39.9803 33.0126 39.928 33.2896 39.6666C33.5442 39.4257 33.5359 38.9746 33.5359 38.9746C33.5359 38.9746 33.5008 36.8403 34.6173 36.5294C35.7184 36.2231 37.1322 38.5705 38.6301 39.473C39.7633 40.1555 40.6241 39.9797 40.6241 39.9797L44.6306 39.9832C44.6306 39.9832 46.7264 39.8433 45.7325 38.3975C45.6515 38.2792 45.1539 37.3279 42.7536 35.3723C40.2413 33.3264 40.578 33.6572 43.6043 30.1172C45.447 27.9619 46.1835 26.6455 45.9534 26.0816C45.7342 25.5451 44.3884 25.638 44.3884 25.638L39.8678 25.6361C39.8678 25.6361 39.5331 25.6076 39.2851 25.738C39.0429 25.8653 38.8872 26.1962 38.8872 26.1962C38.8872 26.1962 38.1732 27.8947 37.2209 29.3131C35.2124 32.3071 34.4092 32.4654 34.0808 32.2792C33.3167 31.8458 33.5078 30.5388 33.5078 29.6102C33.5078 26.7091 34.0093 25.4993 32.5314 25.1865C32.0414 25.083 31.6802 25.0135 30.4263 25.0035C28.8163 24.9888 27.4542 25.0072 26.683 25.3386C26.1698 25.559 25.7739 26.0504 26.015 26.0789C26.3135 26.114 26.9884 26.239 27.3464 26.6662C27.8087 27.2182 27.7922 28.4575 27.7922 28.4575C27.7922 28.4575 28.0581 31.8726 27.1722 32.2969C26.5643 32.588 25.7301 31.9936 23.9394 29.2786C23.0219 27.8866 22.329 26.3202 22.329 26.3202C22.329 26.3202 22.1956 26.033 21.9572 25.8794C21.6682 25.6922 21.2644 25.6337 21.2644 25.6337L16.9777 25.635C16.9777 25.635 16.3343 25.6507 16.0982 25.8965C15.8877 26.1149 16.0811 26.5668 16.0811 26.5668C16.0811 26.5668 19.4369 33.5096 23.2369 36.9819C26.7217 40.1659 30.6782 39.9803 30.6782 39.9803H32.4712Z" fill="#CDCDCD"/>
</svg>
