<svg width="62" height="62" viewBox="0 0 62 62" fill="none" xmlns="http://www.w3.org/2000/svg">
<path fill-rule="evenodd" clip-rule="evenodd" d="M28.8 35.1954V27.8046L35.8546 31.3634L28.8 35.1954ZM44.7297 26.0972C44.7297 26.0972 44.4663 24.2353 43.6569 23.4159C42.6293 22.3404 41.4782 22.3352 40.95 22.2718C37.173 22 31.5055 22 31.5055 22H31.4945C31.4945 22 25.827 22 22.0473 22.2718C21.5191 22.3352 20.3694 22.3404 19.3418 23.4159C18.5337 24.2353 18.2689 26.0972 18.2689 26.0972C18.2689 26.0972 18 28.2836 18 30.4714V32.5207C18 34.7071 18.2689 36.8923 18.2689 36.8923C18.2689 36.8923 18.5337 38.7541 19.3418 39.5736C20.3694 40.6516 21.7194 40.616 22.3189 40.7282C24.4797 40.9367 31.5 41 31.5 41C31.5 41 37.173 40.9921 40.95 40.7189C41.4782 40.6569 42.6293 40.6516 43.6569 39.5736C44.4663 38.7541 44.7297 36.8923 44.7297 36.8923C44.7297 36.8923 45 34.7071 45 32.5207V30.4714C45 28.2836 44.7297 26.0972 44.7297 26.0972V26.0972Z" fill="#FF080D"/>
</svg>
