<svg width="28" height="28" viewBox="0 0 28 28" fill="none" xmlns="http://www.w3.org/2000/svg">
<path d="M25.3147 20.5451L6.85183 2.0823C5.70366 0.934132 3.83544 0.934087 2.68582 2.08371C1.53766 3.23187 1.53766 5.10014 2.68582 6.2483L21.1486 24.7111C22.2968 25.8593 24.1651 25.8593 25.3132 24.7111C26.4629 23.5615 26.4628 21.6933 25.3147 20.5451Z" fill="#2D71F7"/>
<path d="M21.1486 2.47881L2.68581 20.9416C1.53765 22.0898 1.53765 23.9581 2.68723 25.1076C3.83539 26.2558 5.70365 26.2558 6.85182 25.1076L25.3146 6.64481C26.4628 5.49665 26.4628 3.62838 25.3146 2.48022C24.1651 1.33064 22.2968 1.33064 21.1486 2.47881Z" fill="#2D71F7"/>
</svg>
