<svg width="32" height="32" viewBox="0 0 32 32" fill="none" xmlns="http://www.w3.org/2000/svg">
<g clip-path="url(#clip0)">
<path d="M29.0552 4.0166H2.94481C1.32106 4.0166 0 5.3376 0 6.96341C0 8.58716 1.32106 9.90823 2.94481 9.90823H29.0552C30.6789 9.90823 32 8.58716 32 6.96341C32 5.3376 30.6789 4.0166 29.0552 4.0166Z" fill="#2D71F7"/>
<path d="M29.0552 13.0542H2.94481C1.32106 13.0542 0 14.3752 0 16.001C0 17.6248 1.32106 18.9458 2.94481 18.9458H29.0552C30.6789 18.9458 32 17.6248 32 16.001C32 14.3752 30.6789 13.0542 29.0552 13.0542Z" fill="#2D71F7"/>
<path d="M29.0552 22.0918H2.94481C1.32106 22.0918 0 23.4129 0 25.0386C0 26.6624 1.32106 27.9834 2.94481 27.9834H29.0552C30.6789 27.9834 32 26.6624 32 25.0386C32 23.4129 30.6789 22.0918 29.0552 22.0918Z" fill="#2D71F7"/>
</g>
<defs>
<clipPath id="clip0">
<rect width="32" height="32" fill="white"/>
</clipPath>
</defs>
</svg>
