<svg width="60" height="60" viewBox="0 0 60 60" fill="none" xmlns="http://www.w3.org/2000/svg">
<path fill-rule="evenodd" clip-rule="evenodd" d="M60 30C60 46.5685 46.5685 60 30 60C13.4315 60 0 46.5685 0 30C0 13.4315 13.4315 0 30 0C46.5685 0 60 13.4315 60 30ZM42.4705 33.7788L42.4613 33.7707C42.1127 33.4647 41.7841 33.1763 41.6255 32.8898C41.6135 32.8668 41.5985 32.8428 41.5785 32.8108L41.5785 32.8108C40.9648 31.8289 40.7345 29.3804 40.5964 27.9123L40.5955 27.9028L40.5933 27.8791C40.5731 27.6667 40.5538 27.4637 40.5345 27.2738C40.5335 27.2548 40.5315 27.2348 40.5265 27.2048C40.2105 24.9948 39.4255 21.8068 37.4815 19.1758C36.1365 17.3548 34.4655 16.1258 32.5085 15.5148C32.3075 14.0948 31.0835 12.9998 29.6095 12.9998C28.1345 12.9998 26.9105 14.0948 26.7095 15.5148C24.7525 16.1258 23.0815 17.3548 21.7365 19.1758C19.7925 21.8068 19.0075 24.9948 18.6915 27.2048L18.6895 27.2218C18.6886 27.23 18.6876 27.238 18.6866 27.2456L18.6866 27.2457C18.6857 27.2522 18.6849 27.2584 18.6843 27.2641C18.684 27.2671 18.6837 27.27 18.6835 27.2728C18.6635 27.4708 18.6435 27.6818 18.6235 27.9018C18.4855 29.3698 18.2545 31.8268 17.6335 32.8198C17.6225 32.8388 17.6125 32.8558 17.5965 32.8828C17.4337 33.1766 17.1045 33.4664 16.7564 33.7729L16.7485 33.7798L16.7483 33.78C15.8832 34.5381 14.0836 36.115 15.5665 38.8688C15.8535 39.4008 16.4075 39.7318 17.0125 39.7318H42.2055C42.8105 39.7318 43.3655 39.4008 43.6525 38.8688C45.1343 36.1162 43.336 34.5382 42.4709 33.7791L42.4705 33.7788ZM32.4724 42.483H26.6444C26.4054 42.483 26.1804 42.588 26.0274 42.77C25.7404 43.113 25.8204 43.569 25.8684 43.841L25.8724 43.863C26.1894 45.681 27.7604 47 29.6074 47C31.4894 47 33.1044 45.596 33.3634 43.738L33.3684 43.708C33.4004 43.5389 33.4754 43.1429 33.1964 42.806C33.0964 42.685 32.8694 42.483 32.4724 42.483Z" fill="white"/>
</svg>
