<svg width="60" height="60" viewBox="0 0 60 60" fill="none" xmlns="http://www.w3.org/2000/svg">
<path fill-rule="evenodd" clip-rule="evenodd" d="M60 30C60 46.5685 46.5685 60 30 60C13.4315 60 0 46.5685 0 30C0 13.4315 13.4315 0 30 0C46.5685 0 60 13.4315 60 30ZM16.0259 25H44.9722H44.9743C45.5409 25 46 24.5664 46 24.0311C46 23.6385 45.7539 23.3026 45.4003 23.1482L30.9716 16.1084C30.6738 15.9639 30.3243 15.9639 30.0286 16.1084L15.5544 23.1697C15.1346 23.3748 14.9174 23.8241 15.0291 24.2597C15.1408 24.6953 15.5523 25 16.0259 25ZM17.6851 36.3142V26H23.0962V36.3142H27.7934V26H33.2045V36.3142H37.9038V26H43.317V36.3142H43.9795C44.5432 36.3142 45 36.7712 45 37.3352V38H16V37.3352C16 36.7712 16.4568 36.3142 17.0205 36.3142H17.6851ZM45.9584 40H45.2819H15.7181H15.0416C14.4661 40 14 40.4475 14 41C14 41.5505 14.4661 42 15.0416 42H16.7576H44.2404H45.9584C46.5339 42 47 41.5505 47 41C47 40.4475 46.5339 40 45.9584 40ZM45.9584 43H45.2819H15.7181H15.0416C14.4661 43 14 43.4475 14 44C14 44.5505 14.4661 45 15.0416 45H16.7576H44.2404H45.9584C46.5339 45 47 44.5505 47 44C47 43.4475 46.5339 43 45.9584 43Z" fill="white"/>
</svg>
