<svg width="60" height="60" viewBox="0 0 60 60" fill="none" xmlns="http://www.w3.org/2000/svg">
<path fill-rule="evenodd" clip-rule="evenodd" d="M30 0C46.5685 0 60 13.4315 60 30C60 46.5685 46.5685 60 30 60C13.4315 60 0 46.5685 0 30C0 13.4315 13.4315 0 30 0ZM37.8569 14H22.1431C21.8715 14 21.6109 14.1049 21.4188 14.2917L16.3 19.269C16.1079 19.4558 16 19.7092 16 19.9734V33.8674C16 35.5935 16.4514 37.3056 17.3053 38.8188C18.1592 40.3321 19.402 41.6221 20.8992 42.5493L29.4497 47.844C29.6176 47.9479 29.8088 48 30 48C30.1912 48 30.3824 47.9479 30.5503 47.844L39.1007 42.5493C40.598 41.6222 41.8408 40.3321 42.6947 38.8188C43.5486 37.3056 44 35.5935 44 33.8674V19.9734C44 19.7092 43.8921 19.4558 43.7 19.269L38.5812 14.2917C38.3891 14.1049 38.1285 14 37.8569 14ZM30.0001 21.813C30.3697 21.813 30.7106 22.0066 30.8923 22.3196L32.9411 25.8503L37.0317 26.6521C37.3944 26.7232 37.6894 26.9787 37.8036 27.3208C37.9179 27.6629 37.8335 28.0383 37.583 28.303L34.7593 31.2864L35.2383 35.3118C35.2808 35.6689 35.122 36.0206 34.8231 36.2319C34.5248 36.4427 34.132 36.4822 33.7947 36.3323L30 34.6453L26.2053 36.3323C25.8691 36.4817 25.476 36.4433 25.1769 36.2319C24.878 36.0206 24.7192 35.6689 24.7617 35.3118L25.2407 31.2864L22.417 28.303C22.1665 28.0383 22.0822 27.6629 22.1965 27.3208C22.3107 26.9787 22.6057 26.7232 22.9684 26.6521L27.059 25.8503L29.1079 22.3196C29.2896 22.0066 29.6305 21.813 30.0001 21.813Z" fill="white"/>
</svg>
