<svg width="112" height="103" viewBox="0 0 112 103" fill="none" xmlns="http://www.w3.org/2000/svg">
<path d="M32.9142 65.9639C31.1909 63.0283 29.7261 60.0927 28.3475 57.1572C26.5381 61.9059 25.2457 66.5683 24.3841 70.8853C28.606 72.353 33.2588 73.4755 38.2563 74.2525C36.3607 71.6623 34.5513 68.8994 32.9142 65.9639ZM26.2796 52.5811C23.7809 46.71 22.0577 40.9252 20.9375 35.5721C20.0759 35.9175 19.2143 36.2629 18.4388 36.6946C9.21941 40.8389 3.61883 46.5373 3.61883 52.5811C3.61883 58.7113 9.30557 64.3234 18.4388 68.5541C19.2143 68.8994 20.0759 69.2448 20.9375 69.6765C22.0577 64.2371 23.8671 58.5386 26.2796 52.5811ZM79.0112 65.9639C77.288 68.8994 75.5647 71.6623 73.7553 74.3389C78.7527 73.5618 83.4055 72.353 87.6275 70.9716C86.7659 66.6546 85.3873 61.9922 83.664 57.2435C82.1992 60.0927 80.7345 63.0283 79.0112 65.9639ZM70.8258 78.3105C68.9302 80.8144 66.9484 83.1456 65.0529 85.3041C62.985 87.5489 60.917 89.6211 58.763 91.5206C67.7239 98.6004 76.3402 101.363 82.1992 97.9961C87.4552 94.8878 89.5231 87.2036 88.5753 77.1881C88.4891 76.3247 88.403 75.3749 88.2306 74.5116C82.9747 76.2383 77.1156 77.5334 70.8258 78.3105ZM56.0058 93.8517C45.5801 102.14 35.3267 105.335 28.0891 101.191C21.4545 97.3917 18.8696 88.326 19.9036 76.9291C19.9898 75.7203 20.1621 74.5115 20.3344 73.3028C19.2143 72.8711 18.0942 72.353 16.9741 71.9213C6.46221 67 0 60.2654 0 52.5811C0 44.9832 6.4622 38.1623 16.8879 33.3273C17.9218 32.8092 19.042 32.3776 20.2482 31.9459C20.0759 30.7371 19.9036 29.5283 19.8174 28.3196C18.7835 16.8363 21.3684 7.85695 28.0029 4.05798C35.2406 -0.0863438 45.5801 3.0219 55.9196 11.3969C66.3453 3.0219 76.6848 -0.172684 83.9225 4.05798C90.557 7.85695 93.1419 16.9227 92.108 28.3196C92.0218 29.5283 91.8495 30.7371 91.6771 31.9459C92.7973 32.3776 93.9174 32.8956 95.0375 33.3273C105.463 38.1623 111.925 44.8969 111.925 52.5811C111.925 60.1791 105.463 66.9999 95.0375 71.835C94.0035 72.353 92.8834 72.7847 91.6771 73.2164C91.8495 74.4252 92.0218 75.634 92.108 76.8427C93.1419 88.326 90.557 97.3053 83.9225 101.104C76.6848 105.335 66.3453 102.227 56.0058 93.8517ZM28.3475 48.0051C29.7261 45.0695 31.2771 42.2203 32.9142 39.2848C34.6374 36.3492 36.3607 33.5863 38.1701 30.9098C33.1727 31.6868 28.5199 32.8956 24.2979 34.277C25.1595 38.6804 26.5381 43.2564 28.3475 48.0051ZM41.0996 26.8518C42.9952 24.3479 44.9769 22.0167 46.8725 19.8582C48.9404 17.6134 51.0083 15.5412 53.1624 13.6417C44.2015 6.56185 35.5852 3.79896 29.8123 7.16623C24.5564 10.2745 22.4885 17.9587 23.4363 27.9742C23.5224 28.8376 23.6086 29.7873 23.7809 30.6507C28.9507 29.0103 34.8097 27.6288 41.0996 26.8518ZM90.9878 35.5721C89.8677 40.9252 88.0583 46.71 85.6458 52.5811C88.1445 58.4523 89.8677 64.2371 90.9878 69.5902C91.8495 69.2448 92.7111 68.8994 93.4866 68.4677C102.62 64.2371 108.307 58.625 108.307 52.4948C108.307 46.3647 102.62 40.7525 93.4866 36.5219C92.7111 36.2629 91.8495 35.9175 90.9878 35.5721ZM69.361 74.2525C71.6874 71.1443 73.8415 67.6907 75.9094 64.1507C78.1496 60.2654 80.0452 56.4665 81.6823 52.5811C80.0452 48.7822 78.0634 44.8969 75.9094 41.0116C73.8415 37.4716 71.6874 34.1044 69.361 30.9098C69.1887 30.6507 69.0163 30.3917 68.844 30.219C64.7082 29.7873 60.4001 29.5283 56.0058 29.5283C51.5253 29.5283 47.2172 29.7873 43.1675 30.219C42.9952 30.4781 42.8229 30.7371 42.6506 30.9098C40.3242 34.018 38.1701 37.4716 36.1022 41.0116C33.7758 44.8969 31.8802 48.7822 30.157 52.5811C31.794 56.3801 33.7758 60.2654 35.9299 64.1507C37.9978 67.6907 40.1518 71.0579 42.4782 74.2525C42.6506 74.5115 42.8229 74.7706 42.9952 74.9433C47.131 75.3749 51.4392 75.634 55.8335 75.634C60.3139 75.634 64.622 75.3749 68.6717 74.9433C69.0163 74.7706 69.1887 74.5115 69.361 74.2525ZM83.5779 48.0051C85.3873 43.2564 86.6797 38.594 87.5413 34.277C83.3194 32.8093 78.6666 31.6868 73.6691 30.9098C75.4786 33.5863 77.288 36.3492 78.9251 39.2848C80.7345 42.2203 82.1992 45.1559 83.5779 48.0051ZM88.2306 30.7371C88.403 29.7873 88.4891 28.9239 88.5753 28.0605C89.5231 18.0451 87.4552 10.2745 82.1992 7.25257C76.4263 3.8853 67.8101 6.64819 58.763 13.7281C60.8309 15.6276 62.985 17.6997 65.0529 19.9446C67.0346 22.1031 68.9302 24.4343 70.8258 26.9381C77.1156 27.6288 82.9747 29.0103 88.2306 30.7371ZM56.0058 15.9729C53.8517 17.8724 51.6976 19.9446 49.6297 22.2758C48.4235 23.5709 47.3033 24.866 46.1832 26.3337C49.2851 26.0747 52.5593 25.902 55.9196 25.902C59.28 25.902 62.5541 26.0747 65.7422 26.3337C64.6221 24.9523 63.4158 23.5709 62.2957 22.2758C60.2278 19.9446 58.0737 17.8724 56.0058 15.9729ZM23.6948 74.5116C23.5224 75.4613 23.4363 76.3247 23.3501 77.1881C22.4023 87.2036 24.4702 94.9742 29.7261 97.9961C35.499 101.363 44.1153 98.6004 53.1624 91.5206C51.0945 89.6211 48.9404 87.5489 46.8725 85.3041C44.8908 83.1456 42.9952 80.8144 41.0996 78.3105C34.8097 77.5334 28.9507 76.2383 23.6948 74.5116ZM56.0058 89.1894C58.1598 87.2899 60.3139 85.2177 62.3818 82.8865C63.5881 81.5914 64.7082 80.2963 65.8283 78.8286C62.6403 79.0876 59.3661 79.2603 56.0058 79.2603C52.6454 79.2603 49.3712 79.0876 46.1832 78.8286C47.3033 80.21 48.5096 81.5914 49.6297 82.8865C51.6976 85.2177 53.8517 87.3762 56.0058 89.1894Z" fill="#FFEB7D"/>
<path fill-rule="evenodd" clip-rule="evenodd" d="M56.0057 40.5799C49.3711 40.5799 43.9429 46.0193 43.9429 52.6675C43.9429 59.3157 49.3711 64.7551 56.0057 64.7551C62.6402 64.7551 68.0684 59.3157 68.0684 52.6675C67.9823 45.933 62.6402 40.5799 56.0057 40.5799Z" fill="#005CA9"/>
<path fill-rule="evenodd" clip-rule="evenodd" d="M56.0059 64.6688C62.6404 64.6688 67.9825 59.2294 67.9825 52.5812C67.9825 45.933 62.6404 40.5799 56.0059 40.4935V64.6688Z" fill="white"/>
<path fill-rule="evenodd" clip-rule="evenodd" d="M67.724 0C64.3637 0 61.6926 2.67654 61.6926 6.04381C61.6926 9.41108 64.3637 12.0876 67.724 12.0876C71.0844 12.0876 73.7554 9.41108 73.7554 6.04381C73.7554 2.67654 71.0844 0 67.724 0Z" fill="#007AC6"/>
<path fill-rule="evenodd" clip-rule="evenodd" d="M67.7239 12.0876C71.0842 12.0876 73.7553 9.32474 73.7553 6.04381C73.7553 2.67654 71.0842 0 67.7239 0V12.0876Z" fill="white"/>
<path fill-rule="evenodd" clip-rule="evenodd" d="M9.90859 59.7474C6.54824 59.7474 3.8772 62.4239 3.8772 65.7912C3.8772 69.1585 6.54824 71.835 9.90859 71.835C13.2689 71.835 15.94 69.1585 15.94 65.7912C15.94 62.5103 13.2689 59.7474 9.90859 59.7474Z" fill="#007AC6"/>
<path fill-rule="evenodd" clip-rule="evenodd" d="M9.99487 71.9213C13.3552 71.9213 16.0263 69.1584 16.0263 65.8775C16.0263 62.5103 13.3552 59.8337 9.99487 59.8337V71.9213Z" fill="white"/>
<path fill-rule="evenodd" clip-rule="evenodd" d="M90.2985 80.21C86.9381 80.21 84.2671 82.8865 84.2671 86.2538C84.2671 89.6211 86.9381 92.2976 90.2985 92.2976C93.6588 92.2976 96.3299 89.6211 96.3299 86.2538C96.3299 82.8865 93.5727 80.21 90.2985 80.21Z" fill="#007AC6"/>
<path fill-rule="evenodd" clip-rule="evenodd" d="M90.2986 92.2976C93.6589 92.2976 96.33 89.5347 96.33 86.2538C96.33 82.8865 93.6589 80.21 90.2986 80.21V92.2976Z" fill="white"/>
</svg>
