<svg width="60" height="60" viewBox="0 0 60 60" fill="none" xmlns="http://www.w3.org/2000/svg">
<path fill-rule="evenodd" clip-rule="evenodd" d="M28.2023 15.3926C32.7248 10.8701 40.0845 10.8701 44.607 15.3926C49.1317 19.9174 49.1317 27.2771 44.607 31.8019C41.5177 34.8934 37.0448 35.8856 32.9137 34.5446L30.2093 37.2154C30.0113 37.4134 29.7435 37.5236 29.4622 37.5236H27.534V39.4879C27.534 39.7871 27.4058 40.0729 27.183 40.2754C26.9558 40.4756 26.6565 40.5746 26.3595 40.5341L24.7552 40.3474L24.5483 42.5704C24.501 43.0721 24.1005 43.4726 23.5965 43.5199L21.3757 43.7291L21.5625 45.3311C21.5985 45.6529 21.486 45.9701 21.2587 46.1996L19.7692 47.6914C19.5712 47.8894 19.3035 47.9996 19.0223 47.9996H13.0553C12.4725 47.9996 12 47.5294 12 46.9444V40.9796C12 40.7006 12.1125 40.4306 12.3105 40.2349L25.3763 27.1669C24.0375 23.0359 25.1108 18.4841 28.2023 15.3926ZM37.1506 22.8514C38.3859 24.0844 40.3906 24.0844 41.6259 22.8514C42.8589 21.6161 42.8589 19.6114 41.6259 18.3761C40.3906 17.1431 38.3859 17.1431 37.1506 18.3761C35.9176 19.6114 35.9176 21.6161 37.1506 22.8514Z" fill="#CDCDCD"/>
</svg>
