<svg width="60" height="60" viewBox="0 0 60 60" fill="none" xmlns="http://www.w3.org/2000/svg">
<path fill-rule="evenodd" clip-rule="evenodd" d="M39.6233 19.1313H42.87C45.6938 19.1313 48 21.0843 48 23.9081V42.8666C48 45.6903 45.6938 48.0011 42.87 48.0011H17.1345C14.3063 48.0011 12 45.6881 12 42.8666V23.9081C12 21.0843 14.3063 19.1313 17.1345 19.1313H20.3767V17.1333C20.3767 14.3073 22.6898 12.0011 25.5113 12.0011H34.4932C37.3147 12.0011 39.6233 14.3073 39.6233 17.1333V19.1313ZM23.1263 17.1333C23.1263 15.8733 24.2513 14.7483 25.5113 14.7483H34.4933C35.7488 14.7483 36.8738 15.8733 36.8738 17.1333V19.1313H23.1263V17.1333ZM38.2507 37.0008H32.7495V42.5021H27.2527V37.0008H21.7515V30.1271H27.2527V24.6303H32.7517V30.1271H38.2507V37.0008Z" fill="#2D71F7"/>
</svg>
