<svg width="60" height="60" viewBox="0 0 60 60" fill="none" xmlns="http://www.w3.org/2000/svg">
<path fill-rule="evenodd" clip-rule="evenodd" d="M40.5008 35.9992H45.75C46.1663 35.9992 46.4993 36.3344 46.4993 36.7507V40.4992C46.4993 42.1529 45.1538 43.5007 43.5 43.5007H14.9993C13.3455 43.5007 12 42.1529 12 40.4992V19.4999C12 17.8462 13.3455 16.5007 14.9993 16.5007H43.5C45.1538 16.5007 46.4993 17.8462 46.4993 19.4999V23.2507C46.4993 23.6647 46.1663 23.9999 45.75 23.9999H40.5008C37.191 23.9999 34.5 26.6909 34.5 30.0007C34.5 33.3082 37.191 35.9992 40.5008 35.9992ZM39 29.9993C39 30.8273 39.6728 31.5001 40.5007 31.5001C41.3265 31.5001 41.9993 30.8273 41.9993 29.9993C41.9993 29.1736 41.3265 28.5008 40.5007 28.5008C39.6728 28.5008 39 29.1736 39 29.9993ZM40.5007 25.4993H45.75C46.992 25.4993 48 26.5096 48 27.7493V32.2493C48 33.4891 46.992 34.4993 45.75 34.4993H40.5007C38.0167 34.4993 36.0007 32.4811 36.0007 29.9993C36.0007 27.5176 38.0167 25.4993 40.5007 25.4993Z" fill="#2D71F7"/>
</svg>
