<svg width="60" height="60" viewBox="0 0 60 60" fill="none" xmlns="http://www.w3.org/2000/svg">
<path fill-rule="evenodd" clip-rule="evenodd" d="M45.7453 24.6176H14.2521C13.7368 24.6176 13.2891 24.2666 13.1676 23.7649C13.0461 23.2631 13.2823 22.7456 13.7391 22.5094L29.4868 14.3756C29.8086 14.2091 30.1888 14.2091 30.5128 14.3756L46.2111 22.4846C46.5958 22.6624 46.8636 23.0494 46.8636 23.5016C46.8636 24.1181 46.3641 24.6176 45.7476 24.6176H45.7453ZM15.9845 26.4919V37.7666H15.2578C14.6413 37.7666 14.1418 38.2661 14.1418 38.8826V39.6094H45.8555V38.8826C45.8555 38.2661 45.356 37.7666 44.7395 37.7666H44.015V26.4919H38.0953V37.7666H32.9563V26.4919H27.0388V37.7666H21.902V26.4919H15.9845ZM46.1257 41.4827H46.8638C47.4915 41.4827 48 41.9912 48 42.619C48 43.2445 47.4915 43.7552 46.8638 43.7552H44.9895H15.0082H13.1363C12.5085 43.7552 12 43.2445 12 42.619C12 41.9912 12.5085 41.4827 13.1363 41.4827H13.8743H46.1257ZM46.1257 45.7291H46.8638C47.4915 45.7291 48 46.2376 48 46.8654C48 47.4909 47.4915 48.0016 46.8638 48.0016H44.9895H15.0082H13.1363C12.5085 48.0016 12 47.4909 12 46.8654C12 46.2376 12.5085 45.7291 13.1363 45.7291H13.8743H46.1257Z" fill="#0AC06D"/>
</svg>
