<svg width="60" height="60" viewBox="0 0 60 60" fill="none" xmlns="http://www.w3.org/2000/svg">
<path fill-rule="evenodd" clip-rule="evenodd" d="M45.7453 24.6175H14.2521C13.7368 24.6175 13.2891 24.2665 13.1676 23.7648C13.0461 23.263 13.2823 22.7455 13.7391 22.5093L29.4868 14.3755C29.8086 14.209 30.1888 14.209 30.5128 14.3755L46.2111 22.4845C46.5958 22.6623 46.8636 23.0493 46.8636 23.5015C46.8636 24.118 46.3641 24.6175 45.7476 24.6175H45.7453ZM15.9834 26.4919V37.7666H15.2566C14.6401 37.7666 14.1406 38.2661 14.1406 38.8826V39.6094H45.8544V38.8826C45.8544 38.2661 45.3549 37.7666 44.7384 37.7666H44.0139V26.4919H38.0941V37.7666H32.9551V26.4919H27.0376V37.7666H21.9009V26.4919H15.9834ZM46.1257 41.4826H46.8638C47.4915 41.4826 48 41.9911 48 42.6189C48 43.2444 47.4915 43.7551 46.8638 43.7551H44.9895H15.0082H13.1363C12.5085 43.7551 12 43.2444 12 42.6189C12 41.9911 12.5085 41.4826 13.1363 41.4826H13.8743H46.1257ZM46.1257 45.7291H46.8638C47.4915 45.7291 48 46.2376 48 46.8653C48 47.4908 47.4915 48.0016 46.8638 48.0016H44.9895H15.0082H13.1363C12.5085 48.0016 12 47.4908 12 46.8653C12 46.2376 12.5085 45.7291 13.1363 45.7291H13.8743H46.1257Z" fill="#CDCDCD"/>
</svg>
