<svg width="60" height="60" viewBox="0 0 60 60" fill="none" xmlns="http://www.w3.org/2000/svg">
<path fill-rule="evenodd" clip-rule="evenodd" d="M18.0413 29.0528H40.7776V19.5803H18.0413V29.0528ZM37.9334 40.422C36.3629 40.422 35.0917 39.1507 35.0917 37.5802C35.0917 36.0075 36.3629 34.7362 37.9334 34.7362C39.5062 34.7362 40.7774 36.0075 40.7774 37.5802C40.7774 39.1507 39.5062 40.422 37.9334 40.422V40.422ZM20.8809 40.422C19.3104 40.422 18.0391 39.1507 18.0391 37.5802C18.0391 36.0075 19.3104 34.7362 20.8809 34.7362C22.4536 34.7362 23.7226 36.0075 23.7226 37.5802C23.7226 39.1507 22.4536 40.422 20.8809 40.422V40.422ZM29.4083 12C21.0338 12 14.25 12.9473 14.25 19.578V38.5275C14.25 40.2037 14.9903 41.691 16.1445 42.7328V46.1055C16.1445 47.1472 16.9973 48 18.039 48H19.9335C20.9865 48 21.828 47.1472 21.828 46.1055V44.211H36.9863V46.1055C36.9863 47.1472 37.83 48 38.883 48H40.7775C41.817 48 42.6698 47.1472 42.6698 46.1055V42.7328C43.8263 41.691 44.5665 40.2037 44.5665 38.5275V19.578C44.5665 12.9473 37.7805 12 29.4083 12V12Z" fill="#0AC06D"/>
</svg>
