<svg width="60" height="60" viewBox="0 0 60 60" fill="none" xmlns="http://www.w3.org/2000/svg">
<path fill-rule="evenodd" clip-rule="evenodd" d="M60 30C60 46.5685 46.5685 60 30 60C13.4315 60 0 46.5685 0 30C0 13.4315 13.4315 0 30 0C46.5685 0 60 13.4315 60 30ZM30.5 12C23.0561 12 17 17.8487 17 25.0378C17 33.9596 29.0812 47.0574 29.5955 47.6106C30.0787 48.1303 30.9222 48.1293 31.4045 47.6106C31.9188 47.0574 44 33.9596 44 25.0378C43.9999 17.8487 37.9439 12 30.5 12ZM31 32C27.1402 32 24 29.0841 24 25.5C24 21.9158 27.1402 19 31 19C34.8598 19 38 21.9159 38 25.5C38 29.0842 34.8598 32 31 32Z" fill="white"/>
</svg>
