<?xml version="1.0" encoding="utf-8"?>
<!-- Generator: Adobe Illustrator 19.0.0, SVG Export Plug-In . SVG Version: 6.00 Build 0)  -->
<svg width="160px" version="1.1" id="Слой_1" xmlns="http://www.w3.org/2000/svg" xmlns:xlink="http://www.w3.org/1999/xlink" x="0px" y="0px"
	 viewBox="0 0 172 46" style="enable-background:new 0 0 172 46;" xml:space="preserve">
<style type="text/css">
	.st0{fill:#0E559A;}
	.st1{fill:#1D1D1B;}
</style>
<g id="XMLID_55_">
	<g id="XMLID_68_">
		<path id="XMLID_142_" class="st0" d="M45.7,3.2C46.3,3.1,47.2,3,48.3,3c1.3,0,2.2,0.3,2.8,0.8c0.6,0.5,0.9,1.2,0.9,2.1
			c0,0.9-0.3,1.7-0.8,2.2c-0.7,0.7-1.8,1-3,1c-0.3,0-0.6,0-0.9-0.1v3.6h-1.7V3.2z M47.4,7.7c0.2,0.1,0.5,0.1,0.9,0.1
			c1.3,0,2.1-0.6,2.1-1.8c0-1.1-0.7-1.6-2-1.6c-0.5,0-0.8,0-1,0.1V7.7z"/>
		<path id="XMLID_140_" class="st0" d="M54.8,5.8l1.3,3.7c0.1,0.4,0.3,1,0.4,1.4h0c0.1-0.4,0.2-0.9,0.4-1.4L58,5.8h1.9l-1.7,4.7
			c-1,2.6-1.6,3.8-2.4,4.5c-0.7,0.6-1.4,0.8-1.8,0.9l-0.4-1.5c0.3-0.1,0.7-0.2,1-0.5c0.3-0.2,0.7-0.6,1-1.1c0.1-0.1,0.1-0.2,0.1-0.3
			c0-0.1,0-0.2-0.1-0.3l-2.5-6.4H54.8z"/>
		<path id="XMLID_138_" class="st0" d="M65.9,12.5c-0.4,0.2-1.1,0.4-2,0.4c-2.2,0-3.6-1.4-3.6-3.5c0-2.1,1.4-3.7,3.9-3.7
			c0.6,0,1.3,0.1,1.7,0.3l-0.3,1.3C65.3,7.1,64.9,7,64.3,7c-1.3,0-2.1,1-2.1,2.3c0,1.4,0.9,2.2,2.1,2.2c0.6,0,1-0.1,1.4-0.3
			L65.9,12.5z"/>
		<path id="XMLID_135_" class="st0" d="M71.3,12.7L71.2,12h0c-0.4,0.5-1.2,0.9-2.1,0.9c-1.4,0-2.2-1-2.2-2.1c0-1.8,1.6-2.6,4.1-2.6
			V8.1c0-0.5-0.2-1.2-1.4-1.2c-0.7,0-1.4,0.2-1.9,0.5l-0.3-1.1c0.5-0.3,1.4-0.6,2.5-0.6c2.2,0,2.9,1.4,2.9,2.9v2.5
			c0,0.6,0,1.2,0.1,1.7H71.3z M71,9.3c-1.2,0-2.4,0.2-2.4,1.3c0,0.7,0.4,1,1,1c0.7,0,1.2-0.5,1.4-1c0-0.1,0.1-0.3,0.1-0.4V9.3z"/>
		<path id="XMLID_133_" class="st0" d="M79.7,5.8v1.4h-2.1v5.6h-1.8V7.1h-2.1V5.8H79.7z"/>
		<path id="XMLID_130_" class="st0" d="M87.3,9.2c0,2.6-1.8,3.7-3.6,3.7c-2,0-3.5-1.4-3.5-3.6c0-2.3,1.5-3.7,3.6-3.7
			C85.9,5.6,87.3,7.1,87.3,9.2z M82,9.3c0,1.3,0.7,2.4,1.7,2.4c1,0,1.7-1,1.7-2.4c0-1.1-0.5-2.3-1.7-2.3C82.5,6.9,82,8.1,82,9.3z"/>
		<path id="XMLID_128_" class="st0" d="M88.9,5.8h2.2l1,3c0.1,0.5,0.4,1.2,0.5,1.8h0c0.1-0.5,0.4-1.4,0.7-2.1l0.9-2.7h2.2l0.4,7
			h-1.6l-0.1-3c0-0.7-0.1-1.6-0.1-2.5h0c-0.2,0.8-0.3,1.2-0.7,2.3l-1.1,3.1h-1.3l-1-3.1c-0.2-0.7-0.5-1.7-0.6-2.3h-0.1
			c0,0.9,0,1.8-0.1,2.5l-0.1,3h-1.6L88.9,5.8z"/>
		<path id="XMLID_126_" class="st1" d="M47.3,18.1v3.4c0,1.5,0,2.9-0.1,4.2l0,0c0.5-1.1,1.1-2.2,1.8-3.3l2.5-4.3h1.8v9.6h-1.6v-3.4
			c0-1.5,0-2.7,0.1-4h0c-0.5,1.1-1.1,2.3-1.7,3.3l-2.4,4.1h-2v-9.6H47.3z"/>
		<path id="XMLID_124_" class="st1" d="M57.1,20.8v2.7h2.7v-2.7h1.8v7h-1.8v-2.9h-2.7v2.9h-1.8v-7H57.1z"/>
		<path id="XMLID_120_" class="st1" d="M68.2,17.6v3.1c2,0.2,3.6,1.4,3.6,3.6c0,2.3-1.6,3.5-3.6,3.6v2.7h-1.6v-2.7
			c-2-0.1-3.6-1.4-3.6-3.6c0-2.3,1.6-3.5,3.6-3.6v-3.1H68.2z M66.6,21.8c-1.2,0.2-1.8,1.2-1.8,2.4c0,1.3,0.7,2.2,1.8,2.4V21.8z
			 M68.2,26.7c1.2-0.2,1.9-1.2,1.9-2.4c0-1.2-0.7-2.2-1.9-2.4V26.7z"/>
		<path id="XMLID_117_" class="st1" d="M73.3,23.1c0-0.9,0-1.7-0.1-2.3h1.5l0.1,1.1h0c0.5-0.8,1.3-1.2,2.4-1.2
			c1.6,0,2.9,1.4,2.9,3.5c0,2.5-1.6,3.7-3.2,3.7c-0.9,0-1.6-0.4-2-0.9h0v3.6h-1.8V23.1z M75.1,24.8c0,0.2,0,0.3,0.1,0.5
			c0.2,0.7,0.8,1.2,1.5,1.2c1.1,0,1.8-0.9,1.8-2.3c0-1.2-0.6-2.2-1.7-2.2c-0.7,0-1.4,0.5-1.6,1.3c0,0.1-0.1,0.3-0.1,0.4V24.8z"/>
		<path id="XMLID_114_" class="st1" d="M85.7,27.8L85.6,27h0c-0.4,0.5-1.2,0.9-2.1,0.9c-1.4,0-2.2-1-2.2-2.1c0-1.8,1.6-2.6,4.1-2.6
			v-0.1c0-0.5-0.2-1.2-1.4-1.2c-0.7,0-1.4,0.2-1.9,0.5l-0.3-1.1c0.5-0.3,1.4-0.6,2.5-0.6c2.2,0,2.9,1.4,2.9,2.9v2.5
			c0,0.6,0,1.2,0.1,1.7H85.7z M85.4,24.4c-1.2,0-2.4,0.2-2.4,1.3c0,0.7,0.4,1,1,1c0.7,0,1.2-0.5,1.4-1c0-0.1,0.1-0.3,0.1-0.4V24.4z"
			/>
		<path id="XMLID_112_" class="st1" d="M94.2,27.5c-0.4,0.2-1.1,0.4-2,0.4c-2.2,0-3.6-1.4-3.6-3.5c0-2.1,1.4-3.7,3.9-3.7
			c0.6,0,1.3,0.1,1.7,0.3l-0.3,1.3c-0.3-0.1-0.7-0.3-1.3-0.3c-1.3,0-2.1,1-2.1,2.3c0,1.4,0.9,2.2,2.1,2.2c0.6,0,1-0.1,1.4-0.3
			L94.2,27.5z"/>
		<path id="XMLID_110_" class="st1" d="M101,20.8v1.4h-2.1v5.6h-1.8v-5.6H95v-1.4H101z"/>
		<path id="XMLID_107_" class="st1" d="M102,23.1c0-0.9,0-1.7-0.1-2.3h1.5l0.1,1.1h0c0.5-0.8,1.3-1.2,2.4-1.2c1.6,0,2.9,1.4,2.9,3.5
			c0,2.5-1.6,3.7-3.2,3.7c-0.9,0-1.6-0.4-2-0.9h0v3.6H102V23.1z M103.8,24.8c0,0.2,0,0.3,0.1,0.5c0.2,0.7,0.8,1.2,1.5,1.2
			c1.1,0,1.8-0.9,1.8-2.3c0-1.2-0.6-2.2-1.7-2.2c-0.7,0-1.4,0.5-1.6,1.3c0,0.1-0.1,0.3-0.1,0.4V24.8z"/>
		<path id="XMLID_105_" class="st1" d="M111.4,20.8l1.3,3.7c0.1,0.4,0.3,1,0.4,1.4h0c0.1-0.4,0.2-0.9,0.4-1.4l1.1-3.7h1.9l-1.7,4.7
			c-1,2.6-1.6,3.8-2.4,4.5c-0.7,0.6-1.4,0.8-1.8,0.9l-0.4-1.5c0.3-0.1,0.7-0.2,1-0.5c0.3-0.2,0.7-0.6,1-1.1c0.1-0.1,0.1-0.2,0.1-0.3
			c0-0.1,0-0.2-0.1-0.3l-2.5-6.4H111.4z"/>
		<path id="XMLID_103_" class="st1" d="M119.3,20.8v2.9h0.3l2.1-2.9h2.1l-2.8,3.1c1,0.1,1.5,0.9,2,2c0.2,0.5,0.5,1.3,0.8,1.9h-1.8
			c-0.2-0.3-0.4-0.8-0.6-1.5c-0.4-0.9-0.9-1.4-1.8-1.4h-0.2v2.9h-1.8v-7H119.3z"/>
		<path id="XMLID_101_" class="st1" d="M130.2,20.8v1.4h-2.1v5.6h-1.8v-5.6h-2.1v-1.4H130.2z"/>
		<path id="XMLID_99_" class="st1" d="M132.6,20.8l1.3,3.7c0.1,0.4,0.3,1,0.4,1.4h0c0.1-0.4,0.2-0.9,0.4-1.4l1.1-3.7h1.9l-1.7,4.7
			c-1,2.6-1.6,3.8-2.4,4.5c-0.7,0.6-1.4,0.8-1.8,0.9l-0.4-1.5c0.3-0.1,0.7-0.2,1-0.5c0.3-0.2,0.7-0.6,1-1.1c0.1-0.1,0.1-0.2,0.1-0.3
			c0-0.1,0-0.2-0.1-0.3l-2.5-6.4H132.6z"/>
		<path id="XMLID_96_" class="st1" d="M138.8,23.1c0-0.9,0-1.7-0.1-2.3h1.5l0.1,1.1h0c0.5-0.8,1.3-1.2,2.4-1.2
			c1.6,0,2.9,1.4,2.9,3.5c0,2.5-1.6,3.7-3.2,3.7c-0.9,0-1.6-0.4-2-0.9h0v3.6h-1.8V23.1z M140.5,24.8c0,0.2,0,0.3,0.1,0.5
			c0.2,0.7,0.8,1.2,1.5,1.2c1.1,0,1.8-0.9,1.8-2.3c0-1.2-0.6-2.2-1.7-2.2c-0.7,0-1.4,0.5-1.6,1.3c0,0.1-0.1,0.3-0.1,0.4V24.8z"/>
		<path id="XMLID_94_" class="st1" d="M149,20.8v2.7h2.7v-2.7h1.8v7h-1.8v-2.9H149v2.9h-1.8v-7H149z"/>
		<path id="XMLID_90_" class="st1" d="M157.1,20.8V23c0.3,0,0.7-0.1,1.1-0.1c1.5,0,3.1,0.6,3.1,2.4c0,0.8-0.3,1.4-0.9,1.7
			c-0.8,0.6-2,0.8-3,0.8c-0.7,0-1.5,0-2.1-0.1v-6.9H157.1z M157.1,26.6c0.2,0,0.5,0,0.8,0c0.8,0,1.7-0.3,1.7-1.3
			c0-0.9-0.8-1.2-1.6-1.2c-0.3,0-0.6,0-0.8,0.1V26.6z M163.9,20.8v7h-1.8v-7H163.9z"/>
		<path id="XMLID_87_" class="st1" d="M167.1,24.8c0,1.3,1,1.8,2.1,1.8c0.8,0,1.4-0.1,1.9-0.3l0.3,1.2c-0.6,0.2-1.4,0.4-2.4,0.4
			c-2.3,0-3.6-1.4-3.6-3.5c0-1.9,1.2-3.7,3.4-3.7c2.3,0,3,1.9,3,3.4c0,0.3,0,0.6-0.1,0.7H167.1z M170.1,23.5c0-0.6-0.3-1.7-1.4-1.7
			c-1.1,0-1.5,1-1.6,1.7H170.1z"/>
		<path id="XMLID_84_" class="st1" d="M45.6,38.1c0-0.9,0-1.7-0.1-2.3h1.5l0.1,1.1h0c0.5-0.8,1.3-1.2,2.4-1.2c1.6,0,2.9,1.4,2.9,3.5
			c0,2.5-1.6,3.7-3.2,3.7c-0.9,0-1.6-0.4-2-0.9h0v3.6h-1.8V38.1z M47.3,39.9c0,0.2,0,0.3,0.1,0.5c0.2,0.7,0.8,1.2,1.5,1.2
			c1.1,0,1.8-0.9,1.8-2.3c0-1.2-0.6-2.2-1.7-2.2c-0.7,0-1.4,0.5-1.6,1.3c0,0.1-0.1,0.3-0.1,0.4V39.9z"/>
		<path id="XMLID_81_" class="st1" d="M55.3,39.8c0,1.3,1,1.8,2.1,1.8c0.8,0,1.4-0.1,1.9-0.3l0.3,1.2c-0.6,0.2-1.4,0.4-2.4,0.4
			c-2.3,0-3.6-1.4-3.6-3.5c0-1.9,1.2-3.7,3.4-3.7c2.3,0,3,1.9,3,3.4c0,0.3,0,0.6-0.1,0.7H55.3z M58.3,38.6c0-0.6-0.3-1.7-1.4-1.7
			c-1.1,0-1.5,1-1.6,1.7H58.3z"/>
		<path id="XMLID_79_" class="st1" d="M63.2,35.8v5.6h2v-5.6H67v5.6h2v-5.6h1.7v7h-9.3v-7H63.2z"/>
		<path id="XMLID_76_" class="st1" d="M73.9,39.8c0,1.3,1,1.8,2.1,1.8c0.8,0,1.4-0.1,1.9-0.3l0.3,1.2c-0.6,0.2-1.4,0.4-2.4,0.4
			c-2.3,0-3.6-1.4-3.6-3.5c0-1.9,1.2-3.7,3.4-3.7c2.3,0,3,1.9,3,3.4c0,0.3,0,0.6-0.1,0.7H73.9z M77,38.6c0-0.6-0.3-1.7-1.4-1.7
			c-1.1,0-1.5,1-1.6,1.7H77z"/>
		<path id="XMLID_74_" class="st1" d="M81.9,35.8v2.7h2.7v-2.7h1.8v7h-1.8v-2.9h-2.7v2.9h-1.8v-7H81.9z"/>
		<path id="XMLID_72_" class="st1" d="M89.9,35.8v2.5c0,1.1,0,1.8-0.1,2.8h0c0.4-0.8,0.6-1.3,0.9-2.1l1.7-3.3h2.1v7H93v-2.5
			c0-1.1,0-1.6,0.1-2.9h-0.1c-0.3,0.8-0.6,1.3-0.9,2c-0.5,1-1.2,2.3-1.8,3.4h-2.1v-7H89.9z"/>
		<path id="XMLID_69_" class="st1" d="M102.3,42.8h-1.7V40h-0.7c-0.5,0-0.8,0.2-1.1,0.5c-0.4,0.4-0.6,1.1-0.9,1.7
			c-0.1,0.2-0.2,0.4-0.3,0.6h-1.9c0.2-0.2,0.3-0.5,0.4-0.8c0.3-0.6,0.5-1.5,1-2c0.2-0.2,0.5-0.4,0.8-0.5v0c-0.8-0.1-1.8-0.6-1.8-1.7
			c0-0.8,0.5-1.3,1.1-1.6c0.6-0.3,1.5-0.4,2.5-0.4c1,0,1.9,0.1,2.5,0.2V42.8z M100.6,36.9c-0.2,0-0.5-0.1-0.9-0.1
			c-0.8,0-1.6,0.3-1.6,1c0,0.7,0.9,1,1.6,1c0.4,0,0.6,0,0.9,0V36.9z"/>
	</g>
	<g id="XMLID_56_">
		<path id="XMLID_7_" class="st0" d="M20.7,19.8c-1.3,1.5-3.6,1.6-5.1,0.3c-1.5-1.3-1.6-3.6-0.3-5.1s3.6-1.6,5.1-0.3
			C21.9,16,22,18.3,20.7,19.8z"/>
		<path id="XMLID_6_" class="st0" d="M9.7,17.5c0,0,2-1,3.2-5.6c1.2-4.5,5.5-6.7,5.5-6.7S9-4,2,10.5C2,10.5,7.7,11.6,9.7,17.5z"/>
		<path id="XMLID_5_" class="st0" d="M10.5,1.7c0,0,7.2-1.4,11.4,7.6c0,0,5,1.6,9.3-3C31.2,6.3,24-3.7,10.5,1.7z"/>
		<path id="XMLID_4_" class="st0" d="M22.2,24.3c0,0-1.9-1.2-6.4,0c-4.5,1.3-8.5-1.4-8.5-1.4S3.9,35.6,20,34.4
			C20,34.4,18.1,28.9,22.2,24.3z"/>
		<path id="XMLID_3_" class="st0" d="M8.1,31.5c0,0-4.8-5.5,0.8-13.7c0,0-1.1-5.1-7.3-6.6C1.7,11.2-3.3,22.5,8.1,31.5z"/>
		<path id="XMLID_2_" class="st0" d="M21.9,10.1c0,0-0.1,2.3,3.2,5.5c3.4,3.3,3,8.1,3,8.1s12.7-3.4,3.6-16.8
			C31.7,6.9,27.9,11.3,21.9,10.1z"/>
		<path id="XMLID_1_" class="st0" d="M35.1,18.7c0,0-2.4,6.9-12.3,6.1c0,0-3.9,3.5-2.1,9.6C20.8,34.4,33.1,33,35.1,18.7z"/>
	</g>
</g>
</svg>
