<?xml version="1.0" encoding="utf-8"?>
<!-- Generator: Adobe Illustrator 19.0.0, SVG Export Plug-In . SVG Version: 6.00 Build 0)  -->
<svg width="118px" version="1.1" id="Слой_1" xmlns="http://www.w3.org/2000/svg" xmlns:xlink="http://www.w3.org/1999/xlink" x="0px" y="0px"
	 viewBox="0 0 118.5 67" style="enable-background:new 0 0 118.5 67;" xml:space="preserve">
<style type="text/css">
	.st0{fill:none;stroke:url(#XMLID_96_);stroke-width:2;stroke-miterlimit:10;}
	.st1{fill:url(#XMLID_98_);}
	.st2{fill:url(#XMLID_99_);}
	.st3{fill:url(#XMLID_102_);}
	.st4{fill:url(#XMLID_103_);}
	.st5{fill:url(#XMLID_108_);}
	.st6{fill:url(#XMLID_109_);}
	.st7{fill:url(#XMLID_111_);}
	.st8{fill:url(#XMLID_112_);}
</style>
<linearGradient id="XMLID_96_" gradientUnits="userSpaceOnUse" x1="27.8683" y1="65.9236" x2="38.2423" y2="7.09">
	<stop  offset="0" style="stop-color:#999999"/>
	<stop  offset="0.1951" style="stop-color:#B8B8B8"/>
	<stop  offset="0.3901" style="stop-color:#D0D0D0"/>
	<stop  offset="0.5097" style="stop-color:#D9D9D9"/>
	<stop  offset="0.6247" style="stop-color:#D0D0D0"/>
	<stop  offset="0.8123" style="stop-color:#B8B8B8"/>
	<stop  offset="1" style="stop-color:#999999"/>
</linearGradient>
<path id="XMLID_77_" class="st0" d="M61.9,36.5c0,15.9-12.9,28.9-28.9,28.9c-2.9,0-5.8-0.4-8.4-1.2C12.8,60.5,4.2,49.5,4.2,36.5
	c0-15.9,12.9-28.9,28.9-28.9S61.9,20.6,61.9,36.5z"/>
<g id="XMLID_182_">
	<linearGradient id="XMLID_98_" gradientUnits="userSpaceOnUse" x1="55.8171" y1="12.4361" x2="30.7554" y2="18.4778">
		<stop  offset="0" style="stop-color:#0071CE"/>
		<stop  offset="0.1793" style="stop-color:#0065C5"/>
		<stop  offset="0.52" style="stop-color:#0053B7"/>
		<stop  offset="0.7129" style="stop-color:#0041AC"/>
		<stop  offset="1" style="stop-color:#001E97"/>
	</linearGradient>
	<polygon id="XMLID_76_" class="st1" points="31.9,18.5 51.1,18.5 54.7,12.5 35.5,12.5 	"/>
	<radialGradient id="XMLID_99_" cx="42.199" cy="6.4913" r="64.3504" gradientUnits="userSpaceOnUse">
		<stop  offset="0" style="stop-color:#B2B7BB"/>
		<stop  offset="0.3053" style="stop-color:#8D969C"/>
		<stop  offset="0.5" style="stop-color:#7B868C"/>
		<stop  offset="0.6569" style="stop-color:#8D979C"/>
		<stop  offset="0.972" style="stop-color:#BDC1C5"/>
		<stop  offset="0.996" style="stop-color:#C1C5C8"/>
	</radialGradient>
	<polygon id="XMLID_75_" class="st2" points="42.7,6.4 35.5,6.4 4.2,60.6 11.4,60.6 	"/>
	<radialGradient id="XMLID_102_" cx="13.1746" cy="20.5987" r="10.9119" gradientUnits="userSpaceOnUse">
		<stop  offset="0" style="stop-color:#B2B7BB"/>
		<stop  offset="0.3053" style="stop-color:#8D969C"/>
		<stop  offset="0.5" style="stop-color:#7B868C"/>
		<stop  offset="0.6569" style="stop-color:#8D979C"/>
		<stop  offset="0.972" style="stop-color:#BDC1C5"/>
		<stop  offset="0.996" style="stop-color:#C1C5C8"/>
	</radialGradient>
	<circle id="XMLID_74_" class="st3" cx="5.4" cy="24.5" r="4.8"/>
	<radialGradient id="XMLID_103_" cx="33.3826" cy="36.6526" r="32.1518" gradientUnits="userSpaceOnUse">
		<stop  offset="0" style="stop-color:#B2B7BB"/>
		<stop  offset="0.3053" style="stop-color:#8D969C"/>
		<stop  offset="0.5" style="stop-color:#7B868C"/>
		<stop  offset="0.6569" style="stop-color:#8D979C"/>
		<stop  offset="0.972" style="stop-color:#BDC1C5"/>
		<stop  offset="0.996" style="stop-color:#C1C5C8"/>
	</radialGradient>
	<path id="XMLID_199_" class="st4" d="M13.3,66.6h2.4L25.8,49c-0.6-0.3-1.2-0.7-1.7-1.2L13.3,66.6z M30.6,36.5l-3.5,6
		c0.5,0.5,1.1,0.9,1.7,1.3l4.2-7.3H30.6z"/>
	<linearGradient id="XMLID_108_" gradientUnits="userSpaceOnUse" x1="31.5531" y1="51.048" x2="39.0256" y2="23.16">
		<stop  offset="0" style="stop-color:#0071CE"/>
		<stop  offset="0.1793" style="stop-color:#0065C5"/>
		<stop  offset="0.52" style="stop-color:#0053B7"/>
		<stop  offset="0.7129" style="stop-color:#0041AC"/>
		<stop  offset="1" style="stop-color:#001E97"/>
	</linearGradient>
	<path id="XMLID_71_" class="st5" d="M33.6,22.1l-3.8,6.6c1-0.4,2.1-0.6,3.2-0.6c4.6,0,8.4,3.8,8.4,8.4s-3.8,8.4-8.4,8.4
		c-4.3,0-7.8-3.2-8.3-7.4l-3.8,6.7c2.6,4,7.1,6.7,12.2,6.7c8,0,14.4-6.5,14.4-14.4C47.5,28.7,41.3,22.4,33.6,22.1z"/>
	<radialGradient id="XMLID_109_" cx="6.191" cy="24.0312" r="25.1556" gradientUnits="userSpaceOnUse">
		<stop  offset="2.976191e-03" style="stop-color:#D82000"/>
		<stop  offset="0.502" style="stop-color:#E12800"/>
		<stop  offset="0.7876" style="stop-color:#F13A10"/>
		<stop  offset="1" style="stop-color:#FF4B1E"/>
	</radialGradient>
	<polygon id="XMLID_70_" class="st6" points="5.4,24.5 28.2,24.5 31.9,18.5 9,18.5 	"/>
	<radialGradient id="XMLID_111_" cx="26.5151" cy="28.0218" r="29.665" gradientUnits="userSpaceOnUse">
		<stop  offset="2.976191e-03" style="stop-color:#D82000"/>
		<stop  offset="0.502" style="stop-color:#E12800"/>
		<stop  offset="0.7876" style="stop-color:#F13A10"/>
		<stop  offset="1" style="stop-color:#FF4B1E"/>
	</radialGradient>
	<polygon id="XMLID_69_" class="st7" points="11.4,54.5 26.6,28.1 19.4,28.1 4.2,54.5 	"/>
	<g id="XMLID_183_">
		<g id="XMLID_117_">
			
				<radialGradient id="XMLID_112_" cx="38.1411" cy="32.3699" r="35.3365" fx="35.2771" fy="31.5806" gradientUnits="userSpaceOnUse">
				<stop  offset="0" style="stop-color:#00A4DE"/>
				<stop  offset="7.168338e-02" style="stop-color:#00A0DB"/>
				<stop  offset="0.4988" style="stop-color:#008ECE"/>
				<stop  offset="0.5951" style="stop-color:#1298D4"/>
				<stop  offset="0.7893" style="stop-color:#42B2E3"/>
				<stop  offset="1" style="stop-color:#7DD2F5"/>
			</radialGradient>
			<path id="XMLID_119_" class="st8" d="M53.9,0.4l-6.9,12h2.4l6.9-12H53.9z M33.1,36.5h2.4l10.4-18h-2.4L33.1,36.5z"/>
		</g>
	</g>
</g>
<g id="XMLID_143_">
	<g id="XMLID_144_">
		<g id="XMLID_145_">
			<path id="XMLID_179_" d="M58.8,53.7c0.2-0.2,0.5-0.4,0.9-0.4c0.4,0,0.6,0.1,0.9,0.3c0.2,0.2,0.3,0.5,0.3,0.9
				c0,0.4-0.1,0.6-0.3,0.9c-0.2,0.2-0.5,0.3-0.9,0.3c-0.4,0-0.6-0.1-0.9-0.3c-0.2-0.2-0.3-0.5-0.3-0.9
				C58.5,54.2,58.6,53.9,58.8,53.7z M59,55.2c0.2,0.2,0.4,0.3,0.6,0.3c0.3,0,0.5-0.1,0.7-0.3c0.2-0.2,0.3-0.4,0.3-0.7
				c0-0.3-0.1-0.5-0.3-0.7c-0.2-0.2-0.4-0.3-0.6-0.3c-0.3,0-0.5,0.1-0.7,0.3c-0.2,0.2-0.3,0.4-0.3,0.7C58.8,54.8,58.9,55.1,59,55.2z
				"/>
			<path id="XMLID_177_" d="M63.3,55.8v-2.1H62v2.1h-0.3v-2.4h1.9v2.4H63.3z"/>
			<path id="XMLID_175_" d="M64.5,55.8v-2.4h1.3v0.3h-1.1v0.8h1v0.3h-1v0.8h1.1v0.3H64.5z"/>
			<path id="XMLID_172_" d="M66.9,55.8h-0.3v-2.4c0,0,0.1,0,0.3,0c0.2,0,0.3,0,0.3,0c0.3,0,0.5,0.1,0.7,0.2c0.1,0.1,0.2,0.3,0.2,0.5
				c0,0.2-0.1,0.4-0.2,0.5c-0.1,0.1-0.4,0.2-0.6,0.2c-0.1,0-0.3,0-0.4,0V55.8z M66.9,53.6v0.9c0.1,0,0.2,0,0.3,0
				c0.4,0,0.6-0.2,0.6-0.5c0-0.3-0.2-0.5-0.5-0.5C67.2,53.6,67.1,53.6,66.9,53.6z"/>
			<path id="XMLID_170_" d="M68.9,55.8v-2.4h1.3v0.3h-1.1v0.8h1v0.3h-1v0.8h1.1v0.3H68.9z"/>
			<path id="XMLID_166_" d="M71.9,54.5l-1-1.1h0.3l0.9,1.1l-1,1.2h-0.3L71.9,54.5z M72.3,55.8v-2.4h0.3v2.4H72.3z M73.9,53.4l-1,1.1
				l1,1.2h-0.3l-1-1.2l0.9-1.1H73.9z"/>
			<path id="XMLID_163_" d="M76.2,53.4v2.4h-0.3V55H75l-0.5,0.7h-0.3l1.7-2.4H76.2z M75.9,53.8l-0.7,0.9h0.7V53.8z"/>
			<path id="XMLID_160_" d="M78.3,55.8v-0.9h-0.4l-0.6,0.9h-0.3l0.7-0.9c-0.3-0.1-0.5-0.4-0.5-0.7c0-0.2,0.1-0.4,0.2-0.6
				c0.2-0.1,0.4-0.2,0.7-0.2c0.1,0,0.1,0,0.3,0c0.1,0,0.2,0,0.3,0v2.4H78.3z M78.3,54.6v-1c-0.2,0-0.3,0-0.3,0
				c-0.4,0-0.6,0.2-0.6,0.5c0,0.1,0,0.2,0.1,0.3c0.1,0.1,0.2,0.1,0.3,0.2H78.3z"/>
			<path id="XMLID_156_" d="M58.7,58.2c0.4,0,0.6,0,0.7,0c0.5,0,0.8,0.2,0.8,0.6c0,0.3-0.2,0.5-0.4,0.6v0c0.3,0.1,0.5,0.2,0.5,0.6
				c0,0.5-0.3,0.7-0.9,0.7c-0.2,0-0.5,0-0.6,0V58.2z M58.9,58.4v0.8h0.4c0.3,0,0.5-0.1,0.5-0.4c0-0.3-0.2-0.4-0.5-0.4
				C59.2,58.4,59.1,58.4,58.9,58.4z M58.9,59.5v0.8c0.1,0,0.2,0,0.4,0c0.4,0,0.6-0.1,0.6-0.4c0-0.2-0.2-0.4-0.5-0.4H58.9z"/>
			<path id="XMLID_153_" d="M61.3,60.6H61v-2.4c0,0,0.1,0,0.3,0c0.2,0,0.3,0,0.3,0c0.3,0,0.5,0.1,0.7,0.2c0.1,0.1,0.2,0.3,0.2,0.5
				c0,0.2-0.1,0.4-0.2,0.5c-0.1,0.1-0.4,0.2-0.6,0.2c-0.1,0-0.3,0-0.4,0V60.6z M61.3,58.4v0.9c0.1,0,0.2,0,0.3,0
				c0.4,0,0.6-0.2,0.6-0.5c0-0.3-0.2-0.5-0.5-0.5C61.5,58.4,61.4,58.4,61.3,58.4z"/>
			<path id="XMLID_151_" d="M63.2,60.6v-2.4h1.3v0.3h-1.1v0.8h1v0.3h-1v0.8h1.1v0.3H63.2z"/>
			<path id="XMLID_149_" d="M68.1,58.2v2.4h-0.3v-1.9l-1.2,1.9h-0.2v-1.8l-1.1,1.8h-0.4l1.5-2.4h0.2V60l1.1-1.9H68.1z"/>
			<path id="XMLID_146_" d="M70.2,60.6v-0.9h-0.4l-0.6,0.9h-0.3l0.7-0.9C69.2,59.5,69,59.3,69,59c0-0.2,0.1-0.4,0.2-0.6
				c0.2-0.1,0.4-0.2,0.7-0.2c0.1,0,0.1,0,0.3,0c0.1,0,0.2,0,0.3,0v2.4H70.2z M70.2,59.4v-1c-0.2,0-0.3,0-0.3,0
				c-0.4,0-0.6,0.2-0.6,0.5c0,0.1,0,0.2,0.1,0.3c0.1,0.1,0.2,0.1,0.3,0.2H70.2z"/>
		</g>
	</g>
</g>
<g id="XMLID_18_">
	<g id="XMLID_22_">
		<path id="XMLID_141_" d="M60,31.1h-1.5v-0.6h2.3l-1.3,3.6h-0.7L60,31.1z"/>
		<path id="XMLID_139_" d="M61.7,32.4l0.2-1.9h1.7v0.6h-1.2l-0.1,0.7c0.1,0,0.1,0,0.2,0c0.3,0,0.6,0.1,0.8,0.3
			c0.2,0.2,0.3,0.5,0.3,0.8c0,0.4-0.1,0.7-0.4,0.9c-0.2,0.2-0.5,0.3-0.9,0.3c-0.2,0-0.4,0-0.6-0.1c-0.2-0.1-0.3-0.2-0.5-0.4l0.3-0.4
			c0.1,0.1,0.2,0.2,0.3,0.3c0.1,0.1,0.3,0.1,0.4,0.1c0.2,0,0.3-0.1,0.4-0.2c0.1-0.1,0.2-0.3,0.2-0.4c0-0.2-0.1-0.3-0.2-0.5
			c-0.1-0.1-0.3-0.2-0.6-0.2C62,32.3,61.9,32.3,61.7,32.4z"/>
		<path id="XMLID_137_" d="M68.5,30.5h0.6v3.6h-0.6v-2.6l-1.8,2.6h-0.7L68.5,30.5z"/>
		<path id="XMLID_135_" d="M72.6,34.1h-2.1v-3.6h2.1v0.6h-1.5V32h1.3v0.6h-1.3v0.9h1.5V34.1z"/>
		<path id="XMLID_133_" d="M74.6,31.1h-1.2v-0.6h3v0.6h-1.2v3h-0.6V31.1z"/>
		<path id="XMLID_130_" d="M60.9,36.5h0.6v3.6h-0.6v-0.9h-1.2L59,40.1h-0.7L60.9,36.5z M60.9,38.6v-1.1l-0.8,1.1H60.9z"/>
		<path id="XMLID_128_" d="M63.6,37.1h-1.2v-0.6h3v0.6h-1.2v3h-0.6V37.1z"/>
		<path id="XMLID_125_" d="M66.1,38.3c0-0.5,0.2-1,0.5-1.3c0.4-0.4,0.8-0.5,1.3-0.5c0.5,0,1,0.2,1.3,0.5c0.4,0.3,0.5,0.8,0.5,1.3
			c0,0.5-0.2,1-0.5,1.3C69,40,68.5,40.2,68,40.2c-0.5,0-1-0.2-1.3-0.5C66.3,39.3,66.1,38.9,66.1,38.3z M66.8,38.3
			c0,0.4,0.1,0.7,0.3,0.9c0.2,0.2,0.5,0.4,0.9,0.4c0.4,0,0.7-0.1,0.9-0.4c0.2-0.2,0.3-0.5,0.3-0.9c0-0.4-0.1-0.7-0.3-0.9
			C68.6,37.2,68.3,37,68,37c-0.3,0-0.6,0.1-0.9,0.4C66.9,37.6,66.8,37.9,66.8,38.3z"/>
		<path id="XMLID_123_" d="M74.3,36.5h0.6v3.6h-0.6v-2.5l-1.6,2.5h-0.5v-2.4l-1.5,2.4h-0.8l2.3-3.6h0.5V39L74.3,36.5z"/>
		<path id="XMLID_121_" d="M79.1,40.1h-0.6v-1.5h-1.6v1.5h-0.6v-3.6h0.6V38h1.6v-1.5h0.6V40.1z"/>
		<path id="XMLID_118_" d="M80.2,38.3c0-0.5,0.2-1,0.5-1.3c0.4-0.4,0.8-0.5,1.3-0.5s1,0.2,1.3,0.5c0.4,0.3,0.5,0.8,0.5,1.3
			c0,0.5-0.2,1-0.5,1.3c-0.4,0.3-0.8,0.5-1.3,0.5c-0.5,0-1-0.2-1.3-0.5C80.4,39.3,80.2,38.9,80.2,38.3z M80.9,38.3
			c0,0.4,0.1,0.7,0.3,0.9c0.2,0.2,0.5,0.4,0.9,0.4c0.4,0,0.7-0.1,0.9-0.4c0.2-0.2,0.3-0.5,0.3-0.9c0-0.4-0.1-0.7-0.3-0.9
			c-0.2-0.2-0.5-0.4-0.9-0.4c-0.3,0-0.6,0.1-0.9,0.4C81,37.6,80.9,37.9,80.9,38.3z"/>
		<path id="XMLID_115_" d="M87.5,40.1v-2.2L85,40.2v-3.7h0.6v2.3l2.4-2.3v3.7H87.5z M85.6,35.6h0.6c0,0.2,0.2,0.3,0.4,0.3
			c0.3,0,0.4-0.1,0.4-0.3h0.6c0,0.2-0.1,0.4-0.3,0.5c-0.2,0.1-0.4,0.2-0.7,0.2c-0.3,0-0.5-0.1-0.7-0.2C85.7,36,85.6,35.9,85.6,35.6z
			"/>
		<path id="XMLID_113_" d="M61.8,46.1h-0.6v-3h-1.6v3h-0.6v-3.6h2.9V46.1z"/>
		<path id="XMLID_110_" d="M63.5,44.8v1.3h-0.6v-3.6c0.2,0,0.3,0,0.5,0c0.2,0,0.4,0,0.5,0c0.3,0,0.5,0,0.7,0.1
			c0.2,0.1,0.3,0.2,0.4,0.3c0.1,0.1,0.2,0.2,0.2,0.4c0,0.1,0.1,0.3,0.1,0.4c0,0.3-0.1,0.6-0.3,0.8c-0.2,0.2-0.6,0.3-1,0.3
			C63.7,44.8,63.6,44.8,63.5,44.8z M63.9,43.1l-0.5,0v1.1c0.2,0,0.3,0,0.4,0c0.2,0,0.4,0,0.5-0.1c0.1-0.1,0.2-0.2,0.2-0.4
			C64.6,43.3,64.4,43.1,63.9,43.1z"/>
		<path id="XMLID_107_" d="M65.9,44.3c0-0.5,0.2-1,0.5-1.3c0.4-0.4,0.8-0.5,1.3-0.5s1,0.2,1.3,0.5c0.4,0.3,0.5,0.8,0.5,1.3
			c0,0.5-0.2,1-0.5,1.3c-0.4,0.3-0.8,0.5-1.3,0.5c-0.5,0-1-0.2-1.3-0.5C66.1,45.3,65.9,44.9,65.9,44.3z M66.6,44.3
			c0,0.4,0.1,0.7,0.3,0.9c0.2,0.2,0.5,0.4,0.9,0.4c0.4,0,0.7-0.1,0.9-0.4c0.2-0.2,0.3-0.5,0.3-0.9c0-0.4-0.1-0.7-0.3-0.9
			c-0.2-0.2-0.5-0.4-0.9-0.4c-0.3,0-0.6,0.1-0.9,0.4C66.7,43.7,66.6,44,66.6,44.3z"/>
		<path id="XMLID_105_" d="M74.2,42.5h0.6v3.6h-0.6v-2.5l-1.6,2.5h-0.5v-2.4l-1.5,2.4h-0.8l2.3-3.6h0.5V45L74.2,42.5z"/>
		<path id="XMLID_97_" d="M76.1,42.5h0.6v1.2c0.1,0,0.3,0,0.4,0c0.4,0,0.8,0.1,1,0.3c0.2,0.2,0.3,0.5,0.3,0.9c0,0.4-0.1,0.7-0.4,0.9
			c-0.3,0.2-0.6,0.3-1.1,0.3c-0.2,0-0.4,0-0.5,0c-0.1,0-0.3,0-0.4,0V42.5z M77.1,44.3c-0.1,0-0.2,0-0.3,0v1.2c0,0,0.1,0,0.2,0
			c0.1,0,0.1,0,0.2,0c0.5,0,0.7-0.2,0.7-0.6c0-0.2-0.1-0.3-0.2-0.4C77.5,44.4,77.3,44.3,77.1,44.3z M79.6,46.1H79v-3.6h0.6V46.1z"/>
		<path id="XMLID_95_" d="M85,46.1h-4.1v-3.6h0.6v3h1.1v-3h0.6v3h1.1v-3H85V46.1z"/>
		<path id="XMLID_91_" d="M88.5,42.5h0.6v3.6h-0.6v-2.6l-1.8,2.6h-0.7L88.5,42.5z"/>
		<path id="XMLID_89_" d="M92.6,46.1h-2.1v-3.6h2.1v0.6h-1.5V44h1.3v0.6h-1.3v0.9h1.5V46.1z"/>
		<path id="XMLID_85_" d="M96.6,46.1H96v-1.5h-1.6v1.5h-0.6v-3.6h0.6V44H96v-1.5h0.6V46.1z"/>
		<path id="XMLID_83_" d="M100.9,46.1h-0.6v-1.5h-1.6v1.5h-0.6v-3.6h0.6V44h1.6v-1.5h0.6V46.1z"/>
		<path id="XMLID_80_" d="M101.9,44.3c0-0.5,0.2-1,0.5-1.3c0.4-0.4,0.8-0.5,1.3-0.5c0.5,0,1,0.2,1.3,0.5c0.4,0.3,0.5,0.8,0.5,1.3
			c0,0.5-0.2,1-0.5,1.3c-0.4,0.3-0.8,0.5-1.3,0.5c-0.5,0-1-0.2-1.3-0.5C102.1,45.3,101.9,44.9,101.9,44.3z M102.6,44.3
			c0,0.4,0.1,0.7,0.3,0.9c0.2,0.2,0.5,0.4,0.9,0.4c0.4,0,0.7-0.1,0.9-0.4c0.2-0.2,0.3-0.5,0.3-0.9c0-0.4-0.1-0.7-0.3-0.9
			c-0.2-0.2-0.5-0.4-0.9-0.4c-0.3,0-0.6,0.1-0.9,0.4C102.7,43.7,102.6,44,102.6,44.3z"/>
		<path id="XMLID_32_" d="M109.4,45.3l0.2,0.5c-0.1,0.1-0.3,0.2-0.5,0.3c-0.2,0.1-0.4,0.1-0.7,0.1c-0.5,0-1-0.2-1.3-0.5
			c-0.3-0.3-0.5-0.8-0.5-1.3c0-0.5,0.2-1,0.5-1.3c0.3-0.3,0.8-0.5,1.4-0.5c0.5,0,0.8,0.1,1.1,0.4l-0.3,0.5c-0.2-0.2-0.5-0.2-0.8-0.2
			c-0.3,0-0.6,0.1-0.8,0.3c-0.2,0.2-0.3,0.5-0.3,0.9c0,0.4,0.1,0.7,0.3,0.9c0.2,0.2,0.5,0.3,0.9,0.3
			C108.9,45.6,109.1,45.5,109.4,45.3z"/>
		<path id="XMLID_30_" d="M111.6,43.1h-1.2v-0.6h3v0.6h-1.2v3h-0.6V43.1z"/>
		<path id="XMLID_23_" d="M116.8,43.6l-1.9,2.6h-0.6v-3.6h0.6v2.6l1.9-2.6h0.6v3.6h-0.6V43.6z"/>
	</g>
</g>
</svg>
